<svg width="12" height="16" viewBox="0 0 12 16" fill="none" xmlns="http://www.w3.org/2000/svg">
<path d="M11.9999 2.57018H9.37495V1.73428C9.36226 1.35254 9.19708 0.991392 8.91588 0.730162C8.63455 0.468932 8.26023 0.328979 7.87492 0.341053H4.12494C3.73963 0.329002 3.36531 0.468948 3.08399 0.730162C2.8028 0.991392 2.63761 1.35254 2.62492 1.73428V2.57018H0V3.31317H0.749929V12.6014C0.749929 13.2911 1.02655 13.9526 1.51884 14.4403C2.01113 14.9279 2.67882 15.202 3.37501 15.202H8.62499C9.32118 15.202 9.98884 14.928 10.4812 14.4403C10.9734 13.9526 11.2501 13.2911 11.2501 12.6014V3.31317H12L11.9999 2.57018ZM3.37491 1.73428C3.38839 1.54989 3.47458 1.37834 3.61504 1.25654C3.75551 1.13486 3.93862 1.07292 4.12487 1.08407H7.87485C8.0611 1.07292 8.24419 1.13486 8.38468 1.25654C8.52515 1.37834 8.61134 1.5499 8.62481 1.73428V2.57018H3.37484L3.37491 1.73428ZM10.4999 12.6015C10.4999 13.0941 10.3024 13.5666 9.9507 13.915C9.59914 14.2633 9.12229 14.4591 8.62489 14.4591H3.37491C2.87754 14.4591 2.40066 14.2633 2.0491 13.915C1.6974 13.5666 1.49992 13.0941 1.49992 12.6015V3.31327H10.4999V12.6015Z" fill="#C8C8C8"/>
<path d="M3.75195 5.54248H4.50188V12.23H3.75195V5.54248Z" fill="#C8C8C8"/>
<path d="M7.5 5.54248H8.24994V12.23H7.5V5.54248Z" fill="#C8C8C8"/>
</svg>
