<svg width="385" height="384" viewBox="0 0 385 384" fill="none" xmlns="http://www.w3.org/2000/svg">
<g clip-path="url(#clip0_1_2)">
<path d="M0.0100098 98.25C0.51001 96.47 1.01 94.67 1.52 92.89C3.57748 86.1516 7.69636 80.228 13.2969 75.9532C18.8974 71.6784 25.6975 69.2675 32.74 69.06C40.61 68.89 48.49 68.97 56.36 69.01C72.84 69.1 85.81 79.22 89.94 95.24C91.52 101.39 92.94 107.58 94.56 114H384.01V115.5C383.481 116.592 383.017 117.714 382.62 118.86C366.28 175.94 349.98 233.037 333.72 290.15C332.82 293.32 331.44 294.08 328.34 294.07C261.48 293.983 194.623 293.963 127.77 294.01C126.52 294.01 125.27 293.95 124.02 294.01C121.144 294.137 118.426 295.363 116.429 297.436C114.431 299.509 113.306 302.27 113.285 305.149C113.264 308.028 114.35 310.805 116.318 312.906C118.286 315.007 120.986 316.272 123.86 316.44C125.73 316.57 127.61 316.44 129.48 316.44H304.19C321.59 316.44 335.03 328.24 337.92 345.57C340.45 360.79 330.92 376.57 315.79 381.93C313.58 382.72 311.28 383.26 309.01 383.93H300.01C299.19 383.68 298.38 383.37 297.55 383.18C278.61 378.85 267.34 360.83 271.77 341.96C271.98 341.06 272.12 340.13 272.3 339.18H201.62C201.87 340.29 202.05 341.13 202.25 341.97C204.275 350.113 203.198 358.718 199.23 366.111C195.262 373.504 188.685 379.157 180.78 381.97C178.57 382.76 176.27 383.3 174.01 383.97H165.01C164.19 383.72 163.38 383.41 162.54 383.22C143.54 378.89 132.35 360.88 136.78 341.94C136.99 341.05 137.1 340.13 137.3 338.94C132.68 338.94 128.44 339 124.2 338.94C116.787 338.883 109.6 336.385 103.749 331.833C97.8978 327.281 93.7094 320.928 91.8312 313.757C89.9531 306.586 90.4897 298.995 93.3581 292.16C96.2265 285.324 101.267 279.624 107.7 275.94C108.7 275.33 109.8 274.73 110.7 274.19C110.47 273.08 110.36 272.34 110.18 271.61C96.12 214.557 82.0567 157.503 67.99 100.45C67.4624 97.849 66.0314 95.5185 63.9504 93.8713C61.8695 92.2241 59.2727 91.3663 56.62 91.45C50.12 91.38 43.62 91.45 37.12 91.45C27.61 91.45 24.76 93.54 22 102.7H0L0.0100098 98.25ZM100.42 136.69C100.496 137.616 100.623 138.538 100.8 139.45C111.32 182.21 121.827 224.98 132.32 267.76C133.06 270.76 134.22 271.61 137.32 271.6C195.433 271.5 253.54 271.473 311.64 271.52H315.57C328.45 226.52 341.27 181.74 354.17 136.71L100.42 136.69ZM180.75 350.14C180.728 347.917 180.048 345.751 178.794 343.914C177.541 342.078 175.772 340.655 173.71 339.824C171.648 338.994 169.386 338.794 167.21 339.249C165.034 339.704 163.042 340.794 161.485 342.381C159.929 343.968 158.878 345.981 158.466 348.166C158.053 350.35 158.298 352.608 159.169 354.653C160.039 356.698 161.497 358.44 163.357 359.657C165.218 360.874 167.397 361.512 169.62 361.49H169.75C172.697 361.394 175.492 360.157 177.545 358.039C179.597 355.921 180.746 353.089 180.75 350.14ZM315.75 350.3C315.76 348.077 315.11 345.901 313.883 344.047C312.657 342.193 310.908 340.745 308.858 339.885C306.808 339.025 304.549 338.792 302.366 339.216C300.184 339.64 298.177 340.702 296.598 342.267C295.019 343.832 293.939 345.83 293.496 348.008C293.053 350.187 293.265 352.448 294.107 354.505C294.948 356.563 296.381 358.325 298.224 359.568C300.067 360.811 302.237 361.48 304.46 361.49H304.55C307.504 361.444 310.325 360.25 312.415 358.162C314.505 356.074 315.701 353.254 315.75 350.3Z" fill="#D3D3D3"/>
<path d="M237.01 0V44.76H214.51V0H237.01Z" fill="#D3D3D3"/>
<path d="M131.29 43.76L145.86 29.3L176.62 60.1L161.9 74.84L131.29 43.76Z" fill="#D3D3D3"/>
<path d="M289.37 75.14C284.44 70.21 279.28 65.06 274.37 60.14L305.19 29.14L320.29 44.23L289.37 75.14Z" fill="#D3D3D3"/>
<path d="M197.6 201.84C202.863 201.84 207.13 197.573 207.13 192.31C207.13 187.047 202.863 182.78 197.6 182.78C192.337 182.78 188.07 187.047 188.07 192.31C188.07 197.573 192.337 201.84 197.6 201.84Z" fill="#D3D3D3"/>
<path d="M260.51 201.84C265.773 201.84 270.04 197.573 270.04 192.31C270.04 187.047 265.773 182.78 260.51 182.78C255.247 182.78 250.98 187.047 250.98 192.31C250.98 197.573 255.247 201.84 260.51 201.84Z" fill="#D3D3D3"/>
<path d="M247.41 222.45H210.7V232.33H247.41V222.45Z" fill="#D3D3D3"/>
</g>
<defs>
<clipPath id="clip0_1_2">
<rect width="385" height="384" fill="white"/>
</clipPath>
</defs>
</svg>
